<mxfile host="www.draw.io" modified="2019-10-31T07:55:35.526Z" agent="Mozilla/5.0 (Windows NT 10.0; Win64; x64) AppleWebKit/537.36 (KHTML, like Gecko) Chrome/77.0.3865.120 Safari/537.36" etag="rdcWc7qZTIHmVbiAjlJd" version="12.1.7" type="github" pages="1">
  <diagram id="1_UnD71yFGPyUgOvqnU7" name="Page-1">
    <mxGraphModel dx="1408" dy="699" grid="1" gridSize="10" guides="1" tooltips="1" connect="1" arrows="1" fold="1" page="1" pageScale="1" pageWidth="827" pageHeight="1169" math="0" shadow="0">
      <root>
        <mxCell id="0"/>
        <mxCell id="1" parent="0"/>
        <mxCell id="2LsGRlm-ZMdKcB31F_ua-8" value="&lt;b&gt;&lt;font style=&quot;font-size: 15px&quot;&gt;2&lt;/font&gt;&lt;/b&gt;" style="rounded=0;whiteSpace=wrap;html=1;fillColor=none;strokeColor=none;" parent="1" vertex="1">
          <mxGeometry x="209" y="260" width="60" height="45" as="geometry"/>
        </mxCell>
        <mxCell id="2LsGRlm-ZMdKcB31F_ua-1" value="" style="endArrow=classic;html=1;entryX=0.5;entryY=0;entryDx=0;entryDy=0;" parent="1" target="2LsGRlm-ZMdKcB31F_ua-2" edge="1">
          <mxGeometry width="50" height="50" relative="1" as="geometry">
            <mxPoint x="230" y="120" as="sourcePoint"/>
            <mxPoint x="-70" y="30" as="targetPoint"/>
          </mxGeometry>
        </mxCell>
        <mxCell id="2LsGRlm-ZMdKcB31F_ua-2" value="&lt;font style=&quot;font-size: 15px&quot;&gt;&lt;b&gt;contrast&lt;/b&gt;&lt;/font&gt;" style="rounded=1;whiteSpace=wrap;html=1;fillColor=#cce5ff;strokeColor=#36393d;arcSize=50;" parent="1" vertex="1">
          <mxGeometry x="170" y="180" width="120" height="30" as="geometry"/>
        </mxCell>
        <mxCell id="2LsGRlm-ZMdKcB31F_ua-3" value="&lt;b&gt;&lt;font style=&quot;font-size: 12px&quot;&gt;Standard &lt;br&gt;deviation&lt;/font&gt;&lt;/b&gt;" style="rounded=0;whiteSpace=wrap;html=1;fillColor=none;strokeColor=none;" parent="1" vertex="1">
          <mxGeometry x="190" y="120" width="140" height="60" as="geometry"/>
        </mxCell>
        <mxCell id="2LsGRlm-ZMdKcB31F_ua-4" value="&lt;b style=&quot;font-size: 15px ; white-space: normal&quot;&gt;Conv-1&lt;/b&gt;" style="rounded=1;whiteSpace=wrap;html=1;fillColor=#fad7ac;strokeColor=#b46504;" parent="1" vertex="1">
          <mxGeometry x="170" y="240" width="120" height="30" as="geometry"/>
        </mxCell>
        <mxCell id="2LsGRlm-ZMdKcB31F_ua-5" value="" style="endArrow=classic;html=1;exitX=0.5;exitY=1;exitDx=0;exitDy=0;entryX=0.5;entryY=0;entryDx=0;entryDy=0;" parent="1" source="2LsGRlm-ZMdKcB31F_ua-2" target="2LsGRlm-ZMdKcB31F_ua-4" edge="1">
          <mxGeometry width="50" height="50" relative="1" as="geometry">
            <mxPoint x="170" y="340" as="sourcePoint"/>
            <mxPoint x="220" y="290" as="targetPoint"/>
          </mxGeometry>
        </mxCell>
        <mxCell id="2LsGRlm-ZMdKcB31F_ua-6" value="&lt;b style=&quot;font-size: 15px ; white-space: normal&quot;&gt;Conv-1&lt;/b&gt;" style="rounded=1;whiteSpace=wrap;html=1;fillColor=#fad7ac;strokeColor=#b46504;" parent="1" vertex="1">
          <mxGeometry x="170" y="300" width="120" height="30" as="geometry"/>
        </mxCell>
        <mxCell id="2LsGRlm-ZMdKcB31F_ua-7" value="" style="endArrow=classic;html=1;exitX=0.5;exitY=1;exitDx=0;exitDy=0;entryX=0.5;entryY=0;entryDx=0;entryDy=0;" parent="1" edge="1">
          <mxGeometry width="50" height="50" relative="1" as="geometry">
            <mxPoint x="230" y="270" as="sourcePoint"/>
            <mxPoint x="230" y="300" as="targetPoint"/>
          </mxGeometry>
        </mxCell>
        <mxCell id="2LsGRlm-ZMdKcB31F_ua-10" value="" style="endArrow=classic;html=1;exitX=0.5;exitY=1;exitDx=0;exitDy=0;entryX=0.5;entryY=0;entryDx=0;entryDy=0;" parent="1" edge="1">
          <mxGeometry width="50" height="50" relative="1" as="geometry">
            <mxPoint x="230" y="330" as="sourcePoint"/>
            <mxPoint x="230" y="360" as="targetPoint"/>
          </mxGeometry>
        </mxCell>
        <mxCell id="2LsGRlm-ZMdKcB31F_ua-11" value="&lt;b&gt;&lt;font style=&quot;font-size: 15px&quot;&gt;32&lt;/font&gt;&lt;/b&gt;" style="rounded=0;whiteSpace=wrap;html=1;fillColor=none;strokeColor=none;" parent="1" vertex="1">
          <mxGeometry x="213" y="320" width="60" height="45" as="geometry"/>
        </mxCell>
        <mxCell id="2LsGRlm-ZMdKcB31F_ua-12" value="&lt;b&gt;&lt;font style=&quot;font-size: 15px&quot;&gt;32&lt;/font&gt;&lt;/b&gt;" style="rounded=0;whiteSpace=wrap;html=1;fillColor=none;strokeColor=none;" parent="1" vertex="1">
          <mxGeometry x="213" y="200" width="57" height="45" as="geometry"/>
        </mxCell>
        <mxCell id="2LsGRlm-ZMdKcB31F_ua-20" value="&lt;font style=&quot;font-size: 15px&quot;&gt;&lt;b&gt;sigmoid&lt;/b&gt;&lt;/font&gt;" style="rounded=1;whiteSpace=wrap;html=1;fillColor=#ffcccc;strokeColor=#36393d;" parent="1" vertex="1">
          <mxGeometry x="170" y="360" width="120" height="30" as="geometry"/>
        </mxCell>
        <mxCell id="2LsGRlm-ZMdKcB31F_ua-21" value="" style="endArrow=classic;html=1;exitX=0.5;exitY=1;exitDx=0;exitDy=0;entryX=0.5;entryY=0;entryDx=0;entryDy=0;" parent="1" edge="1">
          <mxGeometry width="50" height="50" relative="1" as="geometry">
            <mxPoint x="229" y="390" as="sourcePoint"/>
            <mxPoint x="229" y="420" as="targetPoint"/>
          </mxGeometry>
        </mxCell>
        <mxCell id="2LsGRlm-ZMdKcB31F_ua-22" value="" style="shape=sumEllipse;perimeter=ellipsePerimeter;whiteSpace=wrap;html=1;backgroundOutline=1;fillColor=none;strokeWidth=2;" parent="1" vertex="1">
          <mxGeometry x="215" y="420" width="30" height="30" as="geometry"/>
        </mxCell>
        <mxCell id="2LsGRlm-ZMdKcB31F_ua-23" value="" style="endArrow=classic;html=1;exitX=0.286;exitY=0.5;exitDx=0;exitDy=0;exitPerimeter=0;entryX=0;entryY=0.5;entryDx=0;entryDy=0;" parent="1" source="2LsGRlm-ZMdKcB31F_ua-3" target="2LsGRlm-ZMdKcB31F_ua-22" edge="1">
          <mxGeometry width="50" height="50" relative="1" as="geometry">
            <mxPoint x="170" y="520" as="sourcePoint"/>
            <mxPoint x="150" y="500" as="targetPoint"/>
            <Array as="points">
              <mxPoint x="140" y="150"/>
              <mxPoint x="140" y="435"/>
            </Array>
          </mxGeometry>
        </mxCell>
        <mxCell id="2LsGRlm-ZMdKcB31F_ua-26" value="" style="endArrow=classic;html=1;exitX=0.5;exitY=1;exitDx=0;exitDy=0;entryX=0.5;entryY=0;entryDx=0;entryDy=0;" parent="1" edge="1">
          <mxGeometry width="50" height="50" relative="1" as="geometry">
            <mxPoint x="230" y="450" as="sourcePoint"/>
            <mxPoint x="230" y="480" as="targetPoint"/>
          </mxGeometry>
        </mxCell>
      </root>
    </mxGraphModel>
  </diagram>
</mxfile>
